<svg xmlns="http://www.w3.org/2000/svg" width="240" height="780">
  <style>
    text { dominant-baseline: middle; }
  </style>
  <line x1="110" y1="80" x2="110" y2="140" stroke="black" stroke-width="2" />
  <line x1="110" y1="180" x2="110" y2="240" stroke="black" stroke-width="2" />
  <line x1="110" y1="280" x2="110" y2="340" stroke="black" stroke-width="2" />
  <line x1="110" y1="380" x2="110" y2="440" stroke="black" stroke-width="2" />
  <line x1="110" y1="480" x2="110" y2="540" stroke="black" stroke-width="2" />
  <line x1="110" y1="580" x2="110" y2="640" stroke="black" stroke-width="2" />
  <rect x="40" y="40" width="140" height="40" rx="10" ry="10" fill="white" stroke="black" stroke-width="2" />
  <text x="110" y="65" font-family="Arial" font-size="14" text-anchor="middle" alignment-baseline="middle">Papst</text>
  <rect x="40" y="140" width="140" height="40" rx="10" ry="10" fill="white" stroke="black" stroke-width="2" />
  <text x="110" y="165" font-family="Arial" font-size="14" text-anchor="middle" alignment-baseline="middle">Kardinal</text>
  <rect x="40" y="240" width="140" height="40" rx="10" ry="10" fill="white" stroke="black" stroke-width="2" />
  <text x="110" y="265" font-family="Arial" font-size="14" text-anchor="middle" alignment-baseline="middle">Erzbischof</text>
  <rect x="40" y="340" width="140" height="40" rx="10" ry="10" fill="white" stroke="black" stroke-width="2" />
  <text x="110" y="365" font-family="Arial" font-size="14" text-anchor="middle" alignment-baseline="middle">Bischof</text>
  <rect x="40" y="440" width="140" height="40" rx="10" ry="10" fill="white" stroke="black" stroke-width="2" />
  <text x="110" y="465" font-family="Arial" font-size="14" text-anchor="middle" alignment-baseline="middle">Pfarrer</text>
  <rect x="40" y="540" width="140" height="40" rx="10" ry="10" fill="white" stroke="black" stroke-width="2" />
  <text x="110" y="565" font-family="Arial" font-size="14" text-anchor="middle" alignment-baseline="middle">Diakon</text>
  <rect x="40" y="640" width="140" height="40" rx="10" ry="10" fill="white" stroke="black" stroke-width="2" />
  <text x="110" y="665" font-family="Arial" font-size="14" text-anchor="middle" alignment-baseline="middle">Gläubige/r</text>
</svg>